<svg width="600" height="400" viewBox="0 0 600 400" fill="none" xmlns="http://www.w3.org/2000/svg">
  <!-- Background elements -->
  <rect x="50" y="50" width="500" height="300" rx="20" fill="#F3F4FF" />
  <circle cx="120" cy="100" r="30" fill="#E2E8F0" />
  <circle cx="480" cy="320" r="40" fill="#E2E8F0" />
  
  <!-- Survey form illustration -->
  <rect x="150" y="80" width="300" height="240" rx="8" fill="white" stroke="#CBD5E0" stroke-width="2" />
  
  <!-- Form header -->
  <rect x="150" y="80" width="300" height="40" rx="8 8 0 0" fill="#6366F1" />
  <rect x="170" y="95" width="120" height="10" rx="2" fill="white" />
  
  <!-- Form elements -->
  <rect x="170" y="140" width="260" height="10" rx="2" fill="#CBD5E0" />
  <rect x="170" y="160" width="200" height="10" rx="2" fill="#CBD5E0" />
  
  <!-- Radio buttons -->
  <circle cx="180" cy="190" r="8" fill="white" stroke="#6366F1" stroke-width="2" />
  <circle cx="180" cy="190" r="4" fill="#6366F1" />
  <rect x="195" y="185" width="100" height="10" rx="2" fill="#64748B" />
  
  <circle cx="180" cy="220" r="8" fill="white" stroke="#CBD5E0" stroke-width="2" />
  <rect x="195" y="215" width="120" height="10" rx="2" fill="#64748B" />
  
  <circle cx="180" cy="250" r="8" fill="white" stroke="#CBD5E0" stroke-width="2" />
  <rect x="195" y="245" width="80" height="10" rx="2" fill="#64748B" />
  
  <!-- Submit button -->
  <rect x="170" y="280" width="100" height="25" rx="4" fill="#6366F1" />
  <rect x="195" y="287.5" width="50" height="10" rx="2" fill="white" />
  
  <!-- Person figure -->
  <circle cx="450" cy="150" r="25" fill="#A5B4FC" />
  <path d="M450 175 L450 235" stroke="#A5B4FC" stroke-width="6" stroke-linecap="round" />
  <path d="M450 190 L425 220" stroke="#A5B4FC" stroke-width="4" stroke-linecap="round" />
  <path d="M450 190 L475 220" stroke="#A5B4FC" stroke-width="4" stroke-linecap="round" />
  <path d="M435 255 L450 235 L465 255" stroke="#A5B4FC" stroke-width="4" stroke-linecap="round" />
  
  <!-- Chart elements -->
  <rect x="80" y="180" width="30" height="100" rx="4" fill="#A5B4FC" />
  <rect x="80" y="160" width="30" height="20" rx="4" fill="#6366F1" />
  
  <rect x="120" y="200" width="30" height="80" rx="4" fill="#A5B4FC" />
  <rect x="120" y="180" width="30" height="20" rx="4" fill="#6366F1" />
  
  <rect x="80" y="290" width="70" height="2" fill="#64748B" />
  
  <!-- Decorative elements -->
  <circle cx="550" cy="100" r="10" fill="#A5B4FC" />
  <circle cx="530" cy="80" r="6" fill="#818CF8" />
  <circle cx="560" cy="75" r="4" fill="#6366F1" />
  
  <circle cx="70" cy="280" r="8" fill="#A5B4FC" />
  <circle cx="50" cy="265" r="5" fill="#818CF8" />
  <circle cx="85" cy="260" r="3" fill="#6366F1" />
</svg> 